PathFileType	4	(X/Y/Z)	E:\3-PhD\Data\MocapData\ElaboratedData\009\pre\dynamicElaborations\RunN2\RunN2.trc
DataRate	CameraRate	NumFrames	NumMarkers	Units	OrigDataRate	DataStartFrame
200	200	5	54	mm	200	388
Frame#	Time	FHD			LBHD			RBHD			C7			T10			CLAV			LSHO			LUUPA			LMUPA			LDUPA			LLEP			LMEP			LRAD			LUL			LRFIN			RSHO			RUPA1			RMUPA			RDUPA			RLEP			RMEP			RRAD			RUL			RUFIN			RASI			USACR			LSACR			RSACR			LTHI1			LTHI2			LTHI3			LTHI4			LTIB1			LTIB2			LTIB3			LTIB4			LLMAL			LHEE			LMT1			LMT2			RTHI			RTHI2			RTHI3			RTHI4			RLFC			RTIB1			RTIB2			RTIB3			RTIB4			RLMAL			RHEE			RMT1			RMT2			RMT5		
		X1	Y1	Z1	X2	Y2	Z2	X3	Y3	Z3	X4	Y4	Z4	X5	Y5	Z5	X6	Y6	Z6	X7	Y7	Z7	X8	Y8	Z8	X9	Y9	Z9	X10	Y10	Z10	X11	Y11	Z11	X12	Y12	Z12	X13	Y13	Z13	X14	Y14	Z14	X15	Y15	Z15	X16	Y16	Z16	X17	Y17	Z17	X18	Y18	Z18	X19	Y19	Z19	X20	Y20	Z20	X21	Y21	Z21	X22	Y22	Z22	X23	Y23	Z23	X24	Y24	Z24	X25	Y25	Z25	X26	Y26	Z26	X27	Y27	Z27	X28	Y28	Z28	X29	Y29	Z29	X30	Y30	Z30	X31	Y31	Z31	X32	Y32	Z32	X33	Y33	Z33	X34	Y34	Z34	X35	Y35	Z35	X36	Y36	Z36	X37	Y37	Z37	X38	Y38	Z38	X39	Y39	Z39	X40	Y40	Z40	X41	Y41	Z41	X42	Y42	Z42	X43	Y43	Z43	X44	Y44	Z44	X45	Y45	Z45	X46	Y46	Z46	X47	Y47	Z47	X48	Y48	Z48	X49	Y49	Z49	X50	Y50	Z50	X51	Y51	Z51	X52	Y52	Z52	X53	Y53	Z53	X54	Y54	Z54	

410	2.045000	-265.621891	1494.281751	-109.826558	-466.311400	1471.528708	-108.156495	-376.408526	1482.396806	-19.190894	-495.741522	1359.006711	-45.666320	-673.904104	1063.977864	26.300263	-410.751280	1220.457412	-81.777854	-480.777642	1271.564377	-215.720457	-672.067449	1205.651956	-263.278119	-674.691465	1155.816751	-259.857560	-733.080626	1173.751666	-265.342665	-842.959705	1131.561300	-255.538161	-851.819584	1143.160499	-180.576129	-941.737281	900.014317	-180.935386	-1003.048826	925.959910	-215.489230	-979.494773	824.808389	-190.727108	-375.653037	1307.531997	74.696641	-371.806249	1197.948191	213.676029	-341.251005	1163.436258	209.675886	-365.252256	1149.396445	262.153362	-342.040004	1028.012191	328.113876	-388.934490	984.168816	293.050803	-164.249650	992.833623	147.843028	-135.587121	951.632669	196.414100	-93.558685	1023.279787	145.717160	-525.041531	884.049152	143.191704	-713.892444	974.560428	50.147735	-726.178866	937.663006	31.352971	-711.222467	950.705522	87.539677	-551.844501	666.300887	-173.963785	-476.151650	643.863223	-206.476988	-447.952768	682.403234	-210.366526	-447.024244	588.700896	-201.003076	-346.277823	392.801983	-117.739223	-434.095187	382.421918	-120.759658	-396.353944	365.184846	-107.910455	-416.893581	321.070173	-36.858531	-531.235113	247.070025	45.997258	-588.833841	268.920472	128.659475	-399.110546	159.155884	88.266300	-419.934684	146.031668	47.493338	-578.699762	689.624090	305.827082	-547.274571	636.637953	325.035099	-515.687542	628.624313	316.103900	-585.759029	562.087431	346.850871	-573.594724	460.745441	384.719029	-632.810475	256.798353	446.372646	-713.754839	250.419243	518.928703	-683.329658	218.290026	503.951378	-711.824509	168.290702	496.346372	-793.726132	138.719611	574.746127	-886.244069	108.474293	568.196725	-675.440841	55.194730	507.730817	-666.121074	55.928876	547.299672	-696.032591	38.474739	608.471979	
411	2.050000	-241.381114	1496.863959	-122.911411	-442.106362	1474.121340	-120.651360	-351.807477	1484.665986	-32.035486	-470.831551	1361.237653	-57.014225	-646.723632	1065.735465	18.844917	-386.198228	1223.016816	-94.765173	-458.974118	1274.095901	-227.346426	-651.523931	1211.984625	-271.360416	-655.117587	1162.234919	-268.163605	-713.221344	1181.284339	-272.487517	-824.160892	1140.842125	-260.038775	-831.401764	1153.143766	-185.430864	-918.853994	909.025459	-181.631697	-981.242088	933.863687	-215.274331	-955.138265	833.303425	-189.799900	-348.811797	1311.345785	60.457506	-341.084479	1199.934651	197.945312	-309.983024	1166.038527	192.568131	-332.879570	1150.354783	245.163598	-306.173542	1028.063067	307.854431	-352.977027	984.058824	272.223693	-133.644336	1005.047260	120.372859	-101.651382	964.021209	166.460331	-64.326686	1038.734131	116.185452	-498.114633	885.440385	136.442130	-686.330417	976.711726	43.020497	-698.958448	939.859306	24.372783	-683.660898	953.000018	80.433728	-524.995413	672.043222	-182.714156	-449.149743	651.019087	-215.774569	-421.773577	690.230959	-219.572446	-418.889729	596.470780	-210.583777	-306.715831	398.570807	-131.456885	-393.887267	382.569795	-133.086622	-354.809257	367.500811	-121.399477	-370.651468	320.525979	-51.126421	-478.225356	237.085053	32.770367	-535.426060	253.685843	116.915788	-339.710989	156.915133	70.866060	-360.380776	143.105601	30.412999	-558.958723	691.329574	298.978182	-530.087689	636.927111	318.346794	-499.006186	627.512173	309.298819	-572.124844	564.583130	340.808417	-564.885653	463.253825	379.445434	-627.276622	260.282717	442.435296	-707.753227	255.643588	515.633752	-677.796373	222.873294	500.632411	-706.857138	173.119354	493.637065	-788.891991	144.953761	572.388133	-882.015063	117.966693	566.262114	-674.331970	54.479717	507.248067	-665.066929	55.622046	546.862294	-695.507721	40.151169	607.941663	
412	2.055000	-217.103040	1499.583778	-136.072389	-417.882941	1477.019225	-133.335146	-327.218877	1487.183309	-45.030270	-445.994654	1363.681625	-68.511209	-619.376199	1067.690141	11.285055	-361.662687	1225.857876	-107.870253	-436.956712	1276.867526	-239.064969	-630.505575	1218.413247	-279.554310	-635.027514	1168.776817	-276.476464	-692.800148	1188.885781	-279.645308	-804.651700	1150.104587	-264.519109	-810.232270	1163.038992	-190.253319	-895.077380	917.867410	-182.739940	-958.563159	941.680931	-215.312150	-929.983697	841.629002	-189.515171	-322.197252	1315.361130	46.164641	-310.770439	1202.137745	181.990537	-279.259675	1168.837279	175.210869	-300.959362	1151.601272	227.900620	-271.258845	1028.550354	287.435113	-318.185911	984.528234	251.335393	-104.823254	1017.208601	93.251863	-69.700505	976.462206	136.723826	-36.995282	1053.947805	87.090962	-470.837646	886.858652	129.147127	-658.430177	979.114572	35.734528	-671.505487	942.300331	17.313804	-655.774098	955.584090	73.207113	-498.298315	677.808788	-191.460802	-422.397188	657.857108	-224.967711	-395.701813	697.608106	-228.653634	-391.256894	603.826370	-220.035508	-267.861926	404.086057	-145.353553	-353.972291	382.581829	-145.719095	-313.743736	369.749748	-135.219637	-324.654647	320.142634	-65.947467	-424.853856	227.661360	18.633143	-481.257513	239.208567	104.129139	-280.710699	155.240441	52.664511	-301.216378	140.793395	12.475046	-538.621452	693.612219	291.664085	-512.366373	637.833837	310.986572	-481.937264	626.999573	301.628207	-557.873411	567.964556	334.302250	-555.832041	466.785752	373.531186	-621.134770	264.711988	437.981219	-701.102882	261.590613	511.805461	-671.529007	228.269477	496.801459	-700.990465	178.705994	490.471903	-783.217567	151.831532	569.597858	-876.718837	128.219854	563.508586	-673.098672	53.663708	506.662097	-663.819537	55.339951	546.286202	-694.810828	42.218065	607.242457	
413	2.060000	-192.807101	1502.387137	-149.302484	-393.657751	1480.154827	-146.170281	-302.650367	1489.892838	-58.144187	-421.224302	1366.287530	-80.128518	-591.899943	1069.807521	3.602403	-337.155553	1228.906853	-121.040461	-414.703550	1279.800607	-250.855937	-609.031111	1224.856480	-287.850383	-614.427150	1175.354590	-284.786608	-671.833553	1196.473090	-286.769602	-784.431791	1159.255498	-268.964786	-788.296166	1172.719178	-195.010860	-870.497001	926.451657	-184.305672	-935.083409	949.367962	-215.615136	-904.188800	849.706967	-189.933165	-295.775180	1319.486831	31.850639	-280.813736	1204.510941	165.887566	-249.049968	1171.764385	157.692180	-269.462484	1153.087878	210.459837	-237.248073	1029.407229	267.006035	-284.517603	985.488187	230.567047	-77.660853	1029.098195	66.649255	-39.621847	988.712936	107.393410	-11.404374	1068.669190	58.580887	-443.260271	888.326941	121.304705	-630.248260	981.731545	28.269461	-643.855086	944.947922	10.141119	-627.622666	958.404543	65.836845	-471.751159	683.507213	-200.202744	-395.868445	664.306219	-234.058712	-369.708934	704.471962	-237.624910	-364.083163	610.686082	-229.354792	-229.734390	409.303280	-159.382055	-314.383305	382.450710	-158.611662	-273.194162	371.908545	-149.330187	-278.974469	319.915299	-81.293258	-371.237028	218.844028	3.585623	-426.477004	225.595745	90.284985	-222.197670	154.047345	33.701927	-242.540804	139.010075	-6.278345	-517.677549	696.437117	283.928430	-494.088729	639.344057	303.031135	-464.448253	627.091660	293.196475	-542.942550	572.180731	327.359442	-546.276183	471.317377	367.026310	-614.231055	270.075761	433.047176	-693.694880	268.224971	507.440001	-664.402440	234.454427	492.473949	-694.091345	185.018968	486.846507	-776.583179	159.297890	566.305469	-870.213978	139.160797	559.775045	-671.721295	52.790612	505.959550	-662.350985	55.131486	545.560710	-693.928390	44.715117	606.327553	
414	2.065000	-168.517190	1505.231975	-162.593032	-369.447425	1483.457604	-159.115424	-278.111168	1492.737991	-71.340801	-396.507303	1369.003401	-91.840589	-564.330542	1072.050275	-4.229369	-312.681061	1232.093757	-134.230975	-392.206726	1282.825916	-262.699972	-587.133522	1231.239188	-296.246757	-593.339156	1181.888088	-293.091125	-650.352828	1203.967518	-293.834996	-763.523135	1168.211167	-273.373595	-765.606196	1182.071913	-199.688751	-845.199132	934.692653	-186.361093	-910.872021	956.862402	-216.199321	-877.871634	857.456392	-191.088902	-269.512642	1323.637976	17.543719	-251.163386	1207.013602	149.708211	-219.321372	1174.753615	140.095781	-238.366660	1154.770816	192.932978	-204.095531	1030.569343	246.708063	-251.917682	986.845435	210.075531	-52.010036	1040.518100	40.706645	-11.276510	1000.554256	78.633625	12.627612	1082.675626	30.772587	-415.444871	889.861226	112.939281	-601.855537	984.526971	20.607366	-616.046179	947.766712	2.820711	-599.266247	961.411806	58.299576	-445.348006	689.034245	-208.935774	-369.537461	670.286736	-243.049092	-343.772806	710.751775	-246.507088	-337.320391	616.966540	-238.532115	-192.348634	414.182803	-173.484805	-275.157945	382.164469	-171.706722	-233.198237	373.952879	-163.680341	-233.687905	319.838417	-97.122513	-317.506712	210.669498	-12.367653	-371.251926	212.931611	75.384976	-164.251672	153.260051	14.016796	-184.440169	137.677231	-25.799567	-496.151723	699.758297	275.821290	-475.263018	641.433327	294.573104	-446.523886	627.789113	284.147406	-527.305228	577.155830	320.005791	-536.082551	476.793470	359.979801	-606.432898	276.324055	427.662197	-685.436552	275.484736	502.539249	-656.314788	241.369795	487.660118	-686.057919	191.993079	482.747409	-768.882603	167.271030	562.441961	-862.386789	150.697887	554.928012	-670.157093	51.947562	505.113960	-660.631837	55.069688	544.663377	-692.848457	47.691155	605.130152	
